<svg xmlns="http://www.w3.org/2000/svg" width="44" height="44" viewBox="0 0 44 44">
    <g fill="none" fill-rule="evenodd">
        <g>
            <g transform="translate(-69 -103) translate(69 103)">
                <rect width="44" height="44" fill="#FFF" rx="13"/>
                <path fill="#000" fill-rule="nonzero" d="M26.364 15.15c1.432 0 2.948.819 4.026 2.23-3.536 2.037-2.963 7.342.61 8.762-.491 1.144-.727 1.654-1.36 2.668-.884 1.413-2.129 3.175-3.674 3.187-1.37.015-1.724-.938-3.585-.927-1.861.01-2.248.943-3.622.93-1.544-.014-2.724-1.604-3.607-3.017-2.47-3.95-2.73-8.588-1.207-11.055 1.084-1.752 2.794-2.776 4.4-2.776 1.634 0 2.662.942 4.016.942 1.313 0 2.113-.945 4.003-.945zM25.95 10c.189 1.336-.332 2.645-1.02 3.57-.734.995-2.002 1.764-3.23 1.724-.224-1.28.35-2.598 1.049-3.485.765-.977 2.078-1.728 3.201-1.809z"/>
            </g>
        </g>
    </g>
</svg>
