<svg xmlns="http://www.w3.org/2000/svg" width="44" height="44" viewBox="0 0 44 44">
    <g fill="none" fill-rule="evenodd">
        <g>
            <g transform="translate(-129 -103) translate(129 103)">
                <rect width="44" height="44" fill="#FFF" rx="13"/>
                <g fill-rule="nonzero">
                    <path fill="#4A7AFF" d="M24 12c0 6.628-5.372 12-12 12S0 18.628 0 12 5.372 0 12 0s12 5.372 12 12z" transform="translate(10 10)"/>
                    <path fill="#FFF" d="M16.32 3.452v2.657s-3.05-.443-3.05 1.525v1.968h2.755l-.344 3.001H13.27v7.823h-3.05v-7.823l-2.608-.05V9.603h2.558V7.339s-.169-3.367 3.15-3.985c1.377-.257 3 .098 3 .098z" transform="translate(10 10)"/>
                    <path fill="#DCE1EB" d="M16.32 6.109V3.452s-1.623-.355-3-.098c-.216.04-.416.092-.603.153v16.919h.553v-7.823h2.41l.345-3.001H13.27V7.634c0-1.968 3.05-1.525 3.05-1.525z" transform="translate(10 10)"/>
                </g>
            </g>
        </g>
    </g>
</svg>
