<svg xmlns="http://www.w3.org/2000/svg" width="44" height="44" viewBox="0 0 44 44">
    <g fill="none" fill-rule="evenodd">
        <g>
            <g transform="translate(-189 -103) translate(189 103)">
                <rect width="44" height="44" fill="#FFF" rx="12.711"/>
                <g fill-rule="nonzero">
                    <path fill="#FBBB00" d="M5.319 14.504l-.835 3.118-3.054.065C.518 15.994 0 14.057 0 12c0-1.99.484-3.866 1.342-5.519l2.719.499 1.19 2.702c-.249.726-.384 1.506-.384 2.318 0 .88.16 1.725.452 2.504z" transform="translate(10 10)"/>
                    <path fill="#518EF8" d="M23.79 9.758c.138.726.21 1.476.21 2.242 0 .86-.09 1.697-.262 2.506-.585 2.75-2.111 5.152-4.225 6.852h-.001l-3.424-.175-.485-3.025c1.403-.823 2.5-2.111 3.078-3.652h-6.417V9.758H23.79z" transform="translate(10 10)"/>
                    <path fill="#28B446" d="M19.512 21.357v.001C17.457 23.011 14.845 24 12 24c-4.57 0-8.543-2.554-10.57-6.313l3.889-3.183c1.013 2.704 3.622 4.63 6.681 4.63 1.315 0 2.546-.356 3.603-.976l3.909 3.2z" transform="translate(10 10)"/>
                    <path fill="#F14336" d="M19.66 2.763l-3.888 3.182C14.678 5.262 13.385 4.867 12 4.867c-3.128 0-5.786 2.013-6.748 4.815l-3.91-3.2C3.339 2.63 7.362 0 12 0c2.912 0 5.581 1.037 7.66 2.763z" transform="translate(10 10)"/>
                </g>
            </g>
        </g>
    </g>
</svg>
